<svg width="30" height="30" viewBox="0 0 30 30" fill="none" xmlns="http://www.w3.org/2000/svg">
<path fill-rule="evenodd" clip-rule="evenodd" d="M1.25 15C1.25 14.3096 1.80964 13.75 2.5 13.75H27.5C28.1904 13.75 28.75 14.3096 28.75 15C28.75 15.6904 28.1904 16.25 27.5 16.25H2.5C1.80964 16.25 1.25 15.6904 1.25 15Z" fill="#78A5F0"/>
<path fill-rule="evenodd" clip-rule="evenodd" d="M15 1.25C15.6904 1.25 16.25 1.80964 16.25 2.5V27.5C16.25 28.1904 15.6904 28.75 15 28.75C14.3096 28.75 13.75 28.1904 13.75 27.5V2.5C13.75 1.80964 14.3096 1.25 15 1.25Z" fill="#78A5F0"/>
<path fill-rule="evenodd" clip-rule="evenodd" d="M25.8839 9.11612C26.372 9.60427 26.372 10.3957 25.8839 10.8839L21.7678 15L25.8839 19.1161C26.372 19.6043 26.372 20.3957 25.8839 20.8839C25.3957 21.372 24.6043 21.372 24.1161 20.8839L19.1161 15.8839C18.628 15.3957 18.628 14.6043 19.1161 14.1161L24.1161 9.11612C24.6043 8.62796 25.3957 8.62796 25.8839 9.11612Z" fill="#78A5F0"/>
<path fill-rule="evenodd" clip-rule="evenodd" d="M4.11612 9.11612C4.60427 8.62796 5.39573 8.62796 5.88388 9.11612L10.8839 14.1161C11.372 14.6043 11.372 15.3957 10.8839 15.8839L5.88388 20.8839C5.39573 21.372 4.60427 21.372 4.11612 20.8839C3.62796 20.3957 3.62796 19.6043 4.11612 19.1161L8.23223 15L4.11612 10.8839C3.62796 10.3957 3.62796 9.60427 4.11612 9.11612Z" fill="#78A5F0"/>
<path fill-rule="evenodd" clip-rule="evenodd" d="M9.11612 4.11612C9.60427 3.62796 10.3957 3.62796 10.8839 4.11612L15 8.23223L19.1161 4.11612C19.6043 3.62796 20.3957 3.62796 20.8839 4.11612C21.372 4.60427 21.372 5.39573 20.8839 5.88388L15.8839 10.8839C15.3957 11.372 14.6043 11.372 14.1161 10.8839L9.11612 5.88388C8.62796 5.39573 8.62796 4.60427 9.11612 4.11612Z" fill="#78A5F0"/>
<path fill-rule="evenodd" clip-rule="evenodd" d="M14.1161 19.1161C14.6043 18.628 15.3957 18.628 15.8839 19.1161L20.8839 24.1161C21.372 24.6043 21.372 25.3957 20.8839 25.8839C20.3957 26.372 19.6043 26.372 19.1161 25.8839L15 21.7678L10.8839 25.8839C10.3957 26.372 9.60427 26.372 9.11612 25.8839C8.62796 25.3957 8.62796 24.6043 9.11612 24.1161L14.1161 19.1161Z" fill="#78A5F0"/>
</svg>
