<svg width="30" height="30" viewBox="0 0 30 30" fill="none" xmlns="http://www.w3.org/2000/svg">
<path fill-rule="evenodd" clip-rule="evenodd" d="M9.9649 25.778C9.53334 25.2391 9.6203 24.4525 10.1591 24.0209C10.698 23.5894 11.4846 23.6764 11.9162 24.2151C13.568 26.2775 16.0572 27.5 18.75 27.5C23.5825 27.5 27.5 23.5825 27.5 18.75C27.5 16.0572 26.2775 13.568 24.2151 11.9162C23.6764 11.4846 23.5894 10.698 24.0209 10.1591C24.4525 9.6203 25.2391 9.53334 25.778 9.9649C28.4266 12.0862 30 15.2901 30 18.75C30 24.9633 24.9633 30 18.75 30C15.2901 30 12.0862 28.4266 9.9649 25.778ZM11.25 22.5C5.0368 22.5 0 17.4633 0 11.25C0 5.0368 5.0368 0 11.25 0C17.4633 0 22.5 5.0368 22.5 11.25C22.5 17.4633 17.4633 22.5 11.25 22.5ZM11.25 20C16.0825 20 20 16.0825 20 11.25C20 6.41751 16.0825 2.5 11.25 2.5C6.41751 2.5 2.5 6.41751 2.5 11.25C2.5 16.0825 6.41751 20 11.25 20ZM10.1273 17.2534C10.0101 17.9338 9.36366 18.3902 8.68331 18.2731C8.00298 18.156 7.5464 17.5095 7.66354 16.8292C8.46845 12.1541 12.1541 8.46845 16.8292 7.66354C17.5095 7.5464 18.156 8.00298 18.2731 8.68331C18.3902 9.36366 17.9338 10.0101 17.2534 10.1273C13.6214 10.7526 10.7526 13.6214 10.1273 17.2534Z" fill="#758CA3" stroke="black" stroke-width="0.000353333"/>
</svg>
